<?xml version="1.0" encoding="UTF-8"?>
<!DOCTYPE svg PUBLIC "-//W3C//DTD SVG 1.1//EN" "http://www.w3.org/Graphics/SVG/1.1/DTD/svg11.dtd">
<!-- Creator: CorelDRAW 2017 -->
<svg xmlns="http://www.w3.org/2000/svg" xml:space="preserve" width="320px" height="500px" version="1.1" style="shape-rendering:geometricPrecision; text-rendering:geometricPrecision; image-rendering:optimizeQuality; fill-rule:evenodd; clip-rule:evenodd"
viewBox="0 0 320 500"
 xmlns:xlink="http://www.w3.org/1999/xlink">
 <defs>
  <style type="text/css">
   <![CDATA[
    .fil0 {fill:#CCFFFF}
   ]]>
  </style>
 </defs>
 <g id="Слой_x0020_1">
  <metadata id="CorelCorpID_0Corel-Layer"/>
  <g id="_2456392210784">
   <path class="fil0" d="M87.26 301.42c12.26,1.01 26.69,-3.46 33.98,-10.65 5.57,-5.48 4.69,-11.58 -0.18,-11.34 -3.49,0.17 -9.5,2.42 -14.58,-2.1 -13.69,-12.15 -16.84,17.58 -16.99,10.49 -0.19,-9.53 4.43,-17.67 -5.62,-20.46 -22.79,-6.33 -30.6,9.19 -12.98,27.69 -25.22,-4.1 -33.63,11.1 -15.55,26.34 7.98,6.73 12.09,-1.68 20.07,-6.89 5.93,-3.88 -16.83,15.49 0.92,19.93 6.6,1.65 8.13,7.88 9.96,10.86 2.55,4.16 8.08,1.45 9.47,-6.25 1.82,-10.07 -2.63,-24.51 -10.38,-34.06 -0.9,-1.12 0.5,-3.67 1.88,-3.56z"/>
   <path class="fil0" d="M54.89 372.26c-1.39,-6.03 -5.74,-12.26 -10.3,-14.65 -3.48,-1.83 -6.27,-0.47 -5.41,1.82 0.62,1.65 2.61,4.18 1.23,7.31 -3.73,8.41 10.99,5.38 7.62,6.53 -4.53,1.55 -9.14,0.58 -8.94,5.83 0.45,11.88 9.08,13.25 15.25,1.98 1.89,12.71 10.46,14.42 15,3.42 2,-4.85 -2.66,-5.54 -6.37,-8.56 -2.77,-2.25 10,5.69 9.41,-3.49 -0.22,-3.42 2.53,-5.1 3.68,-6.43 1.6,-1.86 -0.54,-4.1 -4.44,-3.59 -5.11,0.68 -11.35,5.01 -14.74,10.19 -0.39,0.6 -1.83,0.32 -1.99,-0.36z"/>
   <path class="fil0" d="M21.07 382.2c1.61,-3.06 2.04,-7.28 0.98,-9.96 -0.8,-2.04 -2.48,-2.48 -2.95,-1.19 -0.34,0.92 -0.42,2.72 -2.14,3.53 -4.65,2.2 2.69,6.29 0.84,5.55 -2.48,-1 -4.08,-3.09 -5.9,-0.8 -4.14,5.2 -0.99,8.92 5.73,6.4 -3.83,6.07 -0.83,9.91 5.1,6.91 2.61,-1.32 0.89,-3.31 0.42,-5.94 -0.35,-1.96 2.16,6.05 5.25,1.95 1.15,-1.52 2.93,-1.24 3.9,-1.38 1.36,-0.2 1.27,-1.93 -0.57,-3.13 -2.4,-1.58 -6.63,-2.02 -9.95,-1.07 -0.38,0.12 -0.89,-0.53 -0.71,-0.87z"/>
   <path class="fil0" d="M219.06 374.08c-5.64,-1.02 -12.53,0.41 -16.24,3.41 -2.83,2.3 -2.69,5.16 -0.42,5.27 1.62,0.08 4.51,-0.69 6.66,1.63 5.8,6.24 8.6,-7.39 8.35,-4.1 -0.34,4.42 -2.85,7.99 1.69,9.74 10.28,3.95 14.6,-2.89 7.26,-12.26 11.51,3.03 16.09,-3.64 8.39,-11.52 -3.4,-3.47 -5.68,0.24 -9.61,2.3 -2.93,1.53 8.49,-6.43 0.46,-9.29 -2.98,-1.06 -3.41,-4.01 -4.13,-5.48 -0.99,-2.04 -3.68,-1.03 -4.67,2.48 -1.29,4.59 0.12,11.48 3.29,16.26 0.37,0.56 -0.4,1.68 -1.03,1.56z"/>
   <path class="fil0" d="M277.79 405.08c0.22,-9.54 -3.9,-20.5 -9.79,-25.82 -4.5,-4.06 -9.18,-3.1 -8.77,0.66 0.29,2.69 2.3,7.24 -0.96,11.38 -8.78,11.14 14.37,12.23 8.89,12.67 -7.37,0.58 -13.88,-2.62 -15.58,5.28 -3.87,17.93 8.5,23.27 22.02,8.79 -2.03,19.7 10.12,25.52 21.1,10.83 4.84,-6.47 -1.86,-9.28 -6.25,-15.21 -3.27,-4.42 12.75,12.32 15.39,-1.62 0.97,-5.18 5.72,-6.66 7.95,-8.21 3.1,-2.16 0.75,-6.32 -5.27,-7.04 -7.88,-0.95 -18.86,3.15 -25.9,9.58 -0.82,0.75 -2.86,-0.22 -2.83,-1.29z"/>
   <path class="fil0" d="M296.07 264.84c1.06,-5.39 -0.21,-12.01 -3.04,-15.61 -2.15,-2.74 -4.91,-2.65 -5.04,-0.48 -0.1,1.56 0.6,4.34 -1.66,6.37 -6.06,5.47 6.97,8.34 3.82,8.06 -4.24,-0.39 -7.63,-2.84 -9.36,1.48 -3.94,9.8 2.56,14.03 11.64,7.13 -3.07,10.99 3.26,15.48 10.92,8.21 3.38,-3.21 -0.15,-5.45 -2.07,-9.25 -1.42,-2.83 6.04,8.24 8.9,0.58 1.06,-2.84 3.9,-3.21 5.31,-3.88 1.97,-0.92 1.04,-3.51 -2.3,-4.51 -4.38,-1.31 -11.01,-0.05 -15.64,2.91 -0.54,0.35 -1.6,-0.4 -1.48,-1.01z"/>
   <path class="fil0" d="M227.6 151.91c-6.84,-6.72 -17.73,-11.24 -25.69,-10.57 -6.08,0.51 -8.59,4.61 -5.55,6.89 2.18,1.64 6.9,3.29 7.7,8.54 2.14,14.11 18.86,-2.14 15.41,2.19 -4.63,5.81 -11.47,8.38 -6.84,15.07 10.51,15.17 22.94,9.76 21.61,-10.13 13.07,15.05 25.7,10.14 22.47,-8.03 -1.43,-8.01 -8.09,-5.02 -15.48,-5.88 -5.49,-0.64 17.83,-0.89 9.4,-12.42 -3.13,-4.28 -0.94,-8.78 -0.55,-11.48 0.55,-3.76 -4.12,-4.9 -8.8,-0.98 -6.12,5.14 -10.66,16.02 -10.78,25.61 -0.01,1.12 -2.13,1.95 -2.9,1.19z"/>
   <path class="fil0" d="M40.86 46.87c-8.79,3.84 -17.04,12.26 -19.39,19.9 -1.8,5.83 1.07,9.69 4.32,7.72 2.34,-1.41 5.63,-5.18 10.79,-3.96 13.9,3.28 5.06,-18.3 7.78,-13.49 3.67,6.47 3.51,13.77 11.44,11.97 17.99,-4.1 17.61,-17.64 -1.34,-23.83 18.83,-6.52 18.98,-20.07 0.92,-23.84 -7.96,-1.67 -7.68,5.63 -11.22,12.16 -2.64,4.86 5.81,-16.87 -8.02,-13.34 -5.14,1.3 -8.5,-2.4 -10.86,-3.77 -3.29,-1.91 -6.09,2 -4.19,7.79 2.48,7.6 10.88,15.87 19.74,19.56 1.04,0.43 1.02,2.7 0.03,3.13z"/>
   <path class="fil0" d="M289.55 37.71c-4.41,-6.5 -12.43,-11.87 -18.93,-12.61 -4.96,-0.57 -7.63,2.32 -5.56,4.64 1.49,1.67 5.01,3.75 4.81,8.09 -0.55,11.67 15.49,1.31 12.03,4.23 -4.66,3.92 -10.56,4.89 -7.91,11.01 6,13.86 16.84,11.51 18.97,-4.67 8.08,14.18 19.01,12.26 19.33,-2.85 0.14,-6.66 -5.7,-5.33 -11.49,-7.2 -4.3,-1.39 14.46,2.14 9.54,-8.46 -1.83,-3.94 0.65,-7.2 1.4,-9.31 1.04,-2.93 -2.53,-4.59 -6.91,-2.19 -5.73,3.14 -11.12,11.14 -12.76,18.83 -0.19,0.89 -2.02,1.22 -2.52,0.49z"/>
   <path class="fil0" d="M257.24 76.2c0.16,-3.45 -1.25,-7.46 -3.34,-9.43 -1.6,-1.51 -3.3,-1.2 -3.18,0.17 0.09,0.97 0.78,2.64 -0.44,4.11 -3.27,3.97 5.11,4.54 3.12,4.66 -2.67,0.15 -5,-1.06 -5.68,1.79 -1.55,6.46 2.89,8.49 7.9,3.36 -0.89,7.12 3.46,9.32 7.56,4.09 1.8,-2.31 -0.6,-3.38 -2.15,-5.56 -1.15,-1.63 4.53,4.56 5.59,-0.47 0.39,-1.87 2.13,-2.36 2.94,-2.9 1.14,-0.76 0.33,-2.29 -1.85,-2.6 -2.84,-0.4 -6.85,0.99 -9.45,3.27 -0.3,0.26 -1.04,-0.11 -1.02,-0.49z"/>
  </g>
 </g>
</svg>
