<?xml version="1.0" encoding="UTF-8"?>
<!DOCTYPE svg PUBLIC "-//W3C//DTD SVG 1.1//EN" "http://www.w3.org/Graphics/SVG/1.1/DTD/svg11.dtd">
<!-- Creator: CorelDRAW 2017 -->
<svg xmlns="http://www.w3.org/2000/svg" xml:space="preserve" width="397px" height="255px" version="1.1" style="shape-rendering:geometricPrecision; text-rendering:geometricPrecision; image-rendering:optimizeQuality; fill-rule:evenodd; clip-rule:evenodd"
viewBox="0 0 48.63 31.27"
 xmlns:xlink="http://www.w3.org/1999/xlink">
 <defs>
  <style type="text/css">
   <![CDATA[
    .fil2 {fill:#FFF131}
    .fil1 {fill:#FFF357}
    .fil0 {fill:url(#id0)}
   ]]>
  </style>
  <linearGradient id="id0" gradientUnits="userSpaceOnUse" x1="24.32" y1="31.27" x2="24.32" y2="0">
   <stop offset="0" style="stop-opacity:1; stop-color:#FFFF78"/>
   <stop offset="1" style="stop-opacity:1; stop-color:#FEFEFE"/>
  </linearGradient>
 </defs>
 <g id="Слой_x0020_1">
  <metadata id="CorelCorpID_0Corel-Layer"/>
  <rect class="fil0" width="48.63" height="31.27"/>
  <g id="_1666230793232">
   <path class="fil1" d="M13.63 7.37c0,-2.49 -2.45,-4.52 -5.48,-4.52 -3.02,0 -5.48,2.03 -5.48,4.52l0 3.95 -0.92 0 0 -3.96c0,-3.35 2.87,-6.06 6.4,-6.06 3.54,0 6.41,2.72 6.41,6.07l0 3.95 -0.93 0 0 -3.95z"/>
   <rect class="fil1" x="2.99" y="8.77" width="1.36" height="5.32"/>
   <rect class="fil1" x="11.95" y="8.77" width="1.36" height="5.32"/>
  </g>
  <g id="_1666230795312">
   <path class="fil2" d="M37.95 23.05c0,-2.49 -2.45,-4.52 -5.48,-4.52 -3.03,0 -5.48,2.03 -5.48,4.52l0 3.95 -0.93 0 0 -3.96c0,-3.35 2.87,-6.06 6.41,-6.06 3.54,0 6.4,2.72 6.4,6.07l0 3.95 -0.92 0 0 -3.95z"/>
   <rect class="fil2" x="27.31" y="24.45" width="1.36" height="5.32"/>
   <rect class="fil2" x="36.26" y="24.45" width="1.36" height="5.32"/>
  </g>
 </g>
</svg>
